# xmcd CD database file
#
# Track frame offsets:
#	150
#	16165
#	35415
#	52792
#	71700
#	87870
#	102712
#	123642
#	140935
#	157322
#	188895
#
# Disc length: 2701 seconds
#
# Revision: 0
# Processed by: cddbd v1.4PL0 Copyright (c) Steve Scherf et al.
# Submitted via: Feurio! 1.63 - http://www.feurio.com
#
DISCID=a00a8b0b
DTITLE=Nahkampf - Schutt Und Asche
DYEAR=1900
DGENRE=
TTITLE0=Intro
TTITLE1=Schutt Und Asche
TTITLE2=Falsche Träume
TTITLE3=Zigeuner
TTITLE4=H.W. - Lied
TTITLE5=Legion Condor
TTITLE6=Europa Der Vaterländer
TTITLE7=Korea
TTITLE8=17.08.87
TTITLE9=Kameraden
TTITLE10=Tier
EXTD=
EXTT0=
EXTT1=
EXTT2=
EXTT3=
EXTT4=
EXTT5=
EXTT6=
EXTT7=
EXTT8=
EXTT9=
EXTT10=
PLAYORDER=
